<?xml version="1.0" standalone="no"?>
<!DOCTYPE svg PUBLIC "-//W3C//DTD SVG 20010904//EN"
 "http://www.w3.org/TR/2001/REC-SVG-20010904/DTD/svg10.dtd">
<svg version="1.0" xmlns="http://www.w3.org/2000/svg"
 width="1024.000000pt" height="1024.000000pt" viewBox="0 0 1024.000000 1024.000000"
 preserveAspectRatio="xMidYMid meet">

<g transform="translate(0.000000,1024.000000) scale(0.100000,-0.100000)"
fill="#FFFFFF" stroke="none">
<path d="M4780 10164 c-306 -25 -632 -73 -790 -114 -19 -5 -66 -16 -105 -25
-38 -9 -90 -22 -115 -29 -25 -8 -72 -21 -105 -31 -33 -9 -69 -20 -80 -25 -11
-4 -49 -17 -85 -28 -69 -22 -218 -75 -260 -93 -14 -6 -38 -17 -55 -24 -63 -26
-82 -34 -140 -61 -146 -66 -396 -193 -452 -229 -12 -8 -37 -23 -56 -34 -60
-34 -81 -46 -91 -54 -44 -32 -220 -147 -226 -147 -5 0 -10 -3 -12 -8 -1 -4
-37 -32 -78 -62 -41 -30 -89 -66 -106 -80 -17 -14 -48 -38 -70 -55 -82 -63
-244 -208 -354 -317 -464 -455 -815 -957 -1078 -1538 -69 -153 -186 -469 -225
-610 -144 -514 -194 -855 -204 -1390 -4 -246 -2 -356 11 -500 16 -183 57 -488
76 -578 6 -26 15 -67 20 -92 52 -252 186 -693 260 -855 5 -11 25 -58 45 -105
75 -174 220 -456 313 -610 48 -79 245 -364 287 -415 13 -16 59 -73 101 -125
117 -146 194 -231 364 -400 170 -171 209 -206 350 -319 52 -42 97 -79 100 -82
12 -14 244 -181 335 -240 210 -138 511 -304 675 -373 25 -10 63 -27 86 -37 79
-35 237 -96 324 -125 25 -8 54 -19 65 -24 41 -18 325 -98 460 -130 50 -12 65
-14 230 -45 520 -96 1165 -106 1690 -26 189 28 414 77 628 135 69 19 274 84
302 96 11 5 52 20 90 33 72 26 100 37 172 68 24 11 45 19 47 19 14 0 260 120
411 200 92 49 272 156 312 186 17 13 34 24 37 24 3 0 68 45 143 99 473 339
821 685 1185 1176 21 28 41 55 45 60 21 27 177 270 221 345 54 91 193 364 240
470 63 142 150 374 192 510 12 41 33 109 46 150 12 41 28 100 34 130 7 30 16
66 21 80 23 73 79 384 103 580 57 457 42 1056 -39 1536 -27 162 -32 184 -75
354 -43 170 -110 392 -140 465 -4 11 -29 76 -56 145 -26 69 -60 154 -76 190
-32 71 -180 370 -203 410 -181 314 -305 497 -510 749 -176 216 -419 463 -651
661 -57 48 -250 197 -299 230 -27 18 -52 36 -55 40 -6 7 -219 150 -223 150 -2
0 -53 30 -113 66 -185 111 -493 260 -724 349 -193 74 -543 183 -670 208 -14 2
-70 14 -125 25 -153 31 -261 49 -360 61 -49 6 -124 16 -165 22 -72 10 -759 21
-850 13z m795 -59 c261 -25 393 -45 595 -90 58 -13 130 -29 160 -35 168 -36
597 -180 788 -266 193 -87 472 -232 610 -317 703 -437 1258 -1000 1688 -1715
80 -132 234 -442 309 -622 55 -130 149 -400 181 -518 96 -351 144 -618 176
-962 19 -213 16 -782 -6 -980 -63 -578 -193 -1060 -428 -1590 -252 -566 -698
-1170 -1198 -1621 -210 -189 -521 -419 -760 -562 -130 -77 -446 -242 -540
-281 -25 -10 -63 -27 -85 -36 -135 -60 -417 -158 -590 -204 -55 -15 -122 -33
-150 -41 -174 -46 -510 -102 -770 -127 -169 -16 -703 -16 -870 0 -385 38 -654
89 -1030 195 -100 29 -363 125 -470 172 -27 12 -66 28 -85 35 -71 28 -398 195
-505 258 -161 96 -392 250 -505 339 -564 440 -1022 974 -1348 1569 -100 182
-225 455 -272 594 -13 36 -26 70 -30 75 -17 23 -105 311 -142 460 -80 332 -90
388 -135 750 -22 178 -25 820 -5 1015 38 365 77 582 153 865 49 180 133 436
178 540 5 11 26 61 47 110 60 140 209 437 282 559 539 911 1349 1627 2312
2044 350 151 668 247 1105 332 92 18 249 39 375 49 69 6 141 13 160 15 112 10
670 4 805 -9z"/>
<path d="M4800 10049 c-155 -10 -394 -35 -460 -49 -25 -5 -88 -17 -140 -26
-287 -51 -621 -148 -915 -265 -234 -94 -507 -230 -720 -359 -443 -267 -819
-587 -1194 -1015 -15 -16 -60 -73 -101 -125 -41 -52 -77 -97 -80 -100 -32 -27
-252 -361 -358 -545 -39 -68 -182 -350 -182 -359 0 -2 -16 -38 -35 -79 -19
-42 -42 -93 -49 -114 -8 -21 -24 -63 -36 -93 -63 -164 -137 -400 -191 -610
-17 -68 -69 -336 -83 -435 -48 -332 -65 -858 -37 -1175 13 -147 51 -427 76
-555 21 -110 71 -321 85 -365 5 -14 21 -65 35 -115 86 -288 171 -500 319 -795
97 -192 125 -242 247 -430 99 -153 258 -373 324 -447 5 -6 28 -33 50 -59 175
-212 423 -457 640 -633 11 -9 43 -35 70 -57 87 -72 415 -304 430 -304 2 0 35
-19 72 -43 186 -119 477 -264 733 -364 63 -25 124 -49 135 -54 26 -11 242 -81
320 -103 33 -9 74 -21 90 -25 17 -5 64 -16 105 -25 41 -10 91 -21 110 -27 19
-5 60 -13 90 -18 30 -5 109 -18 175 -30 277 -47 402 -56 795 -56 248 0 410 4
480 13 165 20 452 62 460 67 4 2 31 9 61 14 244 44 553 137 864 261 90 35 94
37 260 115 583 273 1153 707 1582 1205 336 391 588 785 796 1250 93 208 205
540 266 790 143 586 177 1105 116 1760 -27 284 -78 548 -170 877 -34 121 -139
415 -184 516 -10 23 -35 80 -56 127 -291 654 -799 1310 -1369 1768 -303 244
-668 476 -964 614 -170 79 -183 84 -267 118 -44 18 -94 39 -112 46 -17 8 -36
14 -42 14 -6 0 -19 4 -29 10 -40 23 -394 132 -522 160 -140 31 -340 71 -420
84 -311 49 -724 66 -1070 45z m755 -198 c216 -20 493 -64 635 -101 19 -5 82
-21 140 -36 120 -30 196 -52 225 -64 11 -5 29 -10 40 -13 39 -10 242 -85 355
-133 101 -42 431 -204 515 -252 120 -69 345 -215 439 -285 225 -168 388 -308
557 -476 455 -457 814 -999 1048 -1586 5 -11 13 -31 19 -45 23 -55 92 -255
122 -355 18 -58 81 -311 90 -355 46 -244 64 -378 90 -650 11 -115 15 -636 5
-694 -3 -17 -10 -85 -15 -151 -20 -234 -49 -423 -96 -620 -33 -137 -50 -197
-104 -382 -19 -65 -56 -174 -70 -208 -4 -11 -25 -63 -45 -115 -45 -115 -224
-481 -295 -604 -99 -170 -305 -466 -419 -602 -14 -17 -44 -52 -66 -79 -156
-190 -433 -461 -630 -616 -44 -35 -82 -66 -85 -69 -36 -39 -358 -256 -516
-348 -135 -78 -505 -262 -528 -262 -3 0 -29 -11 -58 -24 -116 -52 -263 -102
-478 -165 -292 -85 -625 -145 -948 -171 -144 -11 -749 -5 -837 8 -38 6 -135
21 -215 32 -80 11 -165 25 -190 30 -25 4 -74 14 -110 21 -36 7 -117 25 -180
41 -158 41 -169 44 -220 61 -25 8 -70 22 -100 31 -76 23 -250 89 -338 128 -24
10 -62 26 -85 35 -84 33 -395 192 -501 257 -60 36 -111 66 -112 66 -6 0 -247
169 -339 238 -95 71 -165 129 -280 231 -125 111 -410 408 -500 521 -55 69
-102 127 -105 130 -12 11 -140 190 -196 275 -115 173 -222 360 -315 555 -27
58 -54 113 -59 122 -5 9 -33 75 -61 145 -191 472 -303 975 -339 1513 -30 454
10 928 120 1420 19 87 89 328 127 440 163 478 464 1025 774 1405 168 205 435
487 553 583 29 24 63 53 77 65 36 33 283 225 364 282 157 113 375 241 590 348
154 76 307 147 319 147 4 0 31 11 59 24 51 23 303 111 362 127 17 4 46 12 65
18 111 30 157 42 265 65 418 89 688 116 1100 110 149 -2 320 -8 380 -13z"/>
<path d="M5080 9383 c-88 -115 -239 -266 -455 -454 -199 -173 -366 -340 -439
-439 -53 -72 -61 -74 -116 -31 -50 40 -138 86 -217 114 -61 22 -110 36 -248
67 -22 5 -103 14 -180 20 -302 23 -393 32 -465 46 -81 16 -90 19 -222 62 -49
16 -90 26 -93 24 -3 -3 -5 -47 -5 -98 0 -172 -21 -279 -110 -544 -98 -294
-127 -455 -116 -625 4 -55 8 -115 9 -133 2 -31 -1 -35 -38 -48 -22 -8 -76 -23
-120 -35 -44 -11 -93 -24 -110 -29 -154 -45 -368 -80 -487 -80 -70 0 -85 -8
-69 -37 12 -22 50 -127 62 -168 4 -16 15 -55 24 -85 8 -30 22 -89 30 -130 24
-125 22 -180 -6 -180 -14 0 -114 -68 -234 -160 -164 -125 -320 -222 -394 -245
-14 -4 -54 -21 -89 -36 -60 -27 -63 -31 -51 -48 133 -186 194 -293 234 -406 9
-27 21 -59 26 -70 4 -11 29 -85 54 -165 102 -322 161 -454 272 -610 107 -150
280 -296 436 -370 43 -20 65 -36 60 -43 -3 -7 -20 -31 -36 -55 -58 -87 -133
-269 -165 -402 -27 -114 -45 -226 -62 -410 -39 -401 -46 -441 -116 -658 -25
-79 -43 -147 -39 -150 4 -4 61 -10 128 -13 146 -8 246 -22 410 -58 23 -6 60
-14 83 -19 62 -13 64 -17 64 -91 0 -94 35 -245 124 -536 7 -22 15 -47 18 -55
5 -14 15 -50 37 -135 5 -22 15 -109 22 -193 9 -102 17 -152 25 -152 6 0 40 11
75 24 168 62 352 96 529 96 139 0 399 31 517 61 117 31 252 88 329 140 46 32
53 29 84 -36 18 -37 89 -153 110 -179 106 -135 250 -277 450 -446 244 -207
340 -299 435 -420 71 -90 113 -136 118 -130 4 7 87 109 117 145 31 38 222 229
275 275 22 20 87 73 145 120 284 228 491 455 586 642 21 43 43 78 47 78 5 0
28 -13 51 -29 94 -65 247 -126 401 -160 77 -17 197 -29 350 -36 305 -12 395
-27 593 -96 46 -16 87 -27 92 -24 4 3 8 51 9 108 3 156 27 269 112 532 46 140
71 259 76 367 l6 118 36 10 c20 6 61 16 91 21 30 6 75 15 100 20 97 20 240 39
335 44 118 8 131 11 118 28 -14 17 -90 259 -107 342 -22 105 -35 196 -46 335
-25 298 -29 334 -69 523 -30 140 -107 316 -187 430 -19 26 -34 51 -34 56 0 5
21 19 48 32 318 153 534 422 677 844 144 429 188 525 327 713 22 29 38 55 36
56 -1 2 -19 10 -38 19 -242 108 -337 164 -519 306 -52 41 -123 92 -159 114
l-65 41 6 70 c9 97 46 257 95 401 22 66 40 120 39 121 -1 1 -42 4 -92 8 -158
11 -341 41 -465 76 -41 12 -120 33 -175 47 -55 14 -105 30 -112 35 -8 7 -8 18
0 46 6 20 11 111 11 202 0 194 -12 255 -125 605 -66 204 -88 329 -89 488 0 53
-4 97 -9 97 -12 0 -112 -30 -131 -39 -8 -4 -49 -16 -90 -25 -41 -10 -91 -22
-110 -26 -49 -12 -195 -27 -390 -40 -157 -11 -218 -18 -320 -42 -101 -23 -225
-65 -260 -88 -14 -8 -38 -22 -55 -30 -16 -8 -51 -30 -76 -47 -26 -18 -51 -33
-56 -33 -5 0 -17 14 -27 31 -49 83 -233 275 -406 424 -20 17 -69 59 -110 94
-160 138 -381 373 -441 469 -7 12 -18 22 -24 21 -5 0 -39 -39 -75 -86z m103
-255 c44 -66 219 -228 457 -423 48 -39 277 -271 322 -325 73 -90 127 -182 199
-345 54 -119 75 -384 43 -535 -21 -100 -88 -269 -113 -284 -5 -3 -29 2 -53 12
-23 11 -79 31 -123 46 -44 15 -89 31 -100 36 -11 5 -33 11 -50 15 -16 3 -50
11 -75 16 -25 6 -94 18 -155 28 l-109 17 -13 89 c-22 153 -50 225 -115 295
-37 41 -73 59 -131 66 -42 5 -61 2 -93 -14 -101 -52 -168 -176 -180 -336 -7
-92 -17 -106 -76 -106 -22 0 -58 -4 -81 -9 -23 -5 -69 -15 -102 -21 -33 -7
-71 -16 -85 -20 -14 -5 -72 -23 -130 -41 -58 -17 -109 -35 -115 -38 -22 -15
-86 -32 -95 -26 -26 16 -82 174 -106 298 -21 109 -14 299 16 417 25 100 104
269 168 359 109 154 234 281 507 516 136 116 161 140 255 237 52 54 100 98
106 98 7 0 18 -10 27 -22z m2307 -688 c20 -114 44 -201 105 -386 50 -151 58
-182 80 -323 18 -112 18 -164 1 -251 -11 -55 -15 -65 -32 -62 -10 1 -64 9
-119 16 -192 27 -254 29 -400 11 -148 -17 -153 -18 -284 -61 -156 -51 -314
-143 -429 -249 l-62 -57 -35 16 c-19 9 -36 20 -39 25 -3 4 12 43 34 87 63 128
110 332 110 476 0 117 -41 335 -80 423 -5 11 -23 50 -39 88 l-30 67 27 25 c28
26 133 83 192 104 19 7 44 17 55 21 11 5 58 18 105 29 86 20 182 31 480 52 91
6 197 20 235 29 108 28 106 30 125 -80z m-4574 76 c46 -13 297 -38 514 -51
205 -12 391 -69 539 -166 28 -19 52 -38 55 -44 2 -6 -7 -36 -21 -66 -65 -140
-93 -265 -100 -445 -5 -135 6 -275 27 -334 5 -14 19 -59 31 -100 13 -41 33
-94 46 -117 30 -55 29 -68 -8 -87 -35 -17 -34 -18 -81 23 -18 17 -46 42 -63
56 -29 25 -200 135 -210 135 -2 0 -28 11 -57 24 -60 27 -93 38 -158 56 -25 6
-58 15 -75 20 -116 33 -417 38 -590 10 -38 -7 -86 -12 -105 -13 -34 -2 -35 -1
-42 43 -3 25 -7 86 -7 135 -1 149 32 287 169 690 6 16 18 78 28 137 19 122 17
120 108 94z m2301 -864 c38 -50 51 -92 60 -184 l6 -68 -133 0 -133 0 6 63 c12
139 69 241 131 235 22 -2 39 -14 63 -46z m258 -362 c131 -20 326 -65 406 -96
231 -86 357 -149 541 -271 237 -156 458 -380 624 -634 69 -104 180 -315 208
-394 10 -27 21 -59 26 -70 27 -63 90 -311 111 -435 18 -104 18 -586 1 -705
-51 -343 -198 -703 -400 -975 -122 -165 -276 -329 -402 -429 -104 -83 -244
-181 -258 -181 -6 0 -12 -3 -14 -7 -4 -11 -124 -75 -228 -121 -119 -54 -135
-60 -190 -77 -30 -9 -64 -21 -75 -26 -18 -8 -63 -20 -190 -50 -134 -32 -225
-42 -437 -46 -261 -5 -349 4 -618 69 -456 109 -876 381 -1193 773 -169 209
-316 477 -383 699 -13 45 -28 95 -33 111 -21 65 -41 155 -58 255 -22 132 -25
565 -5 675 7 39 18 97 24 130 6 33 19 92 30 130 11 39 24 86 29 106 22 92 133
345 205 469 119 205 356 480 549 636 194 158 439 289 710 380 104 35 137 42
340 79 189 35 464 37 680 5z m-2150 -55 c172 -46 317 -117 415 -204 19 -17 38
-31 43 -31 19 0 3 -30 -32 -58 -46 -37 -55 -39 -73 -14 -23 32 -117 100 -184
133 -52 26 -82 33 -143 37 -52 3 -81 1 -85 -7 -4 -6 -15 -11 -25 -11 -23 0
-74 -56 -92 -100 -41 -105 23 -282 145 -401 l37 -36 -23 -29 c-124 -153 -253
-371 -328 -554 -12 -30 -28 -68 -35 -85 -14 -32 -49 -144 -65 -207 -6 -21 -14
-55 -20 -75 -11 -47 -38 -197 -42 -238 -3 -29 -5 -30 -49 -29 -44 0 -64 5
-174 39 -153 49 -329 190 -436 351 -26 38 -65 112 -87 164 -77 179 -97 284
-132 675 -13 144 -34 278 -56 360 -30 109 -31 103 12 110 63 10 169 31 224 44
86 21 271 71 279 75 20 13 325 84 406 95 50 7 97 14 105 16 41 10 360 -5 415
-20z m4215 6 c25 -6 90 -22 145 -35 55 -14 134 -34 175 -46 282 -80 296 -84
455 -111 66 -11 122 -23 125 -25 2 -3 -3 -35 -12 -72 -39 -156 -55 -260 -78
-512 -35 -371 -90 -556 -225 -745 -132 -187 -383 -349 -572 -370 l-60 -7 -7
48 c-12 86 -49 268 -67 329 -73 248 -165 448 -303 655 -57 86 -108 153 -118
158 -19 9 -4 38 46 94 30 33 71 92 92 131 31 60 38 84 42 148 5 80 -7 119 -52
167 -48 53 -163 68 -261 34 -55 -19 -196 -112 -225 -149 -23 -29 -33 -29 -78
4 -20 15 -39 29 -42 31 -9 6 78 81 146 124 65 42 196 103 274 127 100 31 198
40 375 37 99 -2 200 -9 225 -15z m-4108 -295 c59 -26 158 -101 158 -120 0 -6
-38 -49 -85 -96 l-85 -84 -31 29 c-63 59 -119 170 -119 235 0 62 71 77 162 36z
m3600 7 c26 -23 23 -88 -6 -146 -23 -45 -115 -167 -126 -167 -10 0 -180 169
-180 179 0 6 28 32 61 60 99 79 209 112 251 74z m-5267 -620 c37 -317 91 -491
216 -701 90 -148 323 -360 437 -396 30 -10 27 -26 -13 -64 -85 -84 -71 -227
31 -302 18 -14 33 -27 33 -30 0 -3 -38 -27 -84 -55 -47 -27 -97 -60 -112 -73
-16 -13 -47 -40 -70 -59 l-42 -35 -48 18 c-228 87 -423 279 -543 537 -23 48
-79 202 -126 344 -47 142 -91 272 -99 288 -51 115 -71 154 -91 187 -13 21 -24
42 -24 46 0 5 42 33 93 62 50 29 142 89 202 134 197 147 210 155 222 156 7 0
14 -24 18 -57z m6874 -11 c234 -179 261 -198 384 -260 33 -16 33 -22 4 -70
-49 -77 -105 -216 -198 -492 -79 -236 -125 -336 -217 -474 -94 -142 -270 -290
-430 -361 l-63 -28 -37 34 c-20 19 -39 37 -42 40 -10 12 -153 101 -176 109
-31 12 -30 22 6 49 55 40 82 92 81 160 0 67 -16 105 -61 147 -16 16 -30 33
-30 39 0 6 21 21 47 35 197 104 354 265 463 473 79 150 128 315 156 525 10 72
22 132 27 132 6 0 44 -26 86 -58z m-5841 -1289 l3 -133 -40 0 c-106 0 -239 50
-271 102 -11 18 -20 37 -20 42 0 25 80 83 136 99 84 24 94 25 144 24 l45 -2 3
-132z m4865 120 c63 -17 122 -48 145 -76 7 -9 12 -30 10 -48 -2 -26 -12 -39
-42 -59 -56 -38 -136 -63 -208 -64 l-63 -1 -3 119 c-1 66 0 126 2 133 7 18 83
17 159 -4z m-4839 -470 c27 -191 80 -382 159 -578 59 -146 194 -373 300 -504
l59 -73 -54 -57 c-101 -104 -148 -203 -148 -308 0 -154 129 -229 305 -178 66
19 181 89 232 141 18 19 36 34 40 34 13 0 102 -65 103 -75 0 -13 -125 -128
-189 -173 -90 -65 -257 -136 -376 -161 -72 -15 -244 -31 -285 -26 -19 2 -66 6
-105 10 -109 11 -260 43 -460 100 -27 7 -79 21 -115 30 -36 9 -81 21 -100 26
-59 15 -182 37 -246 45 -34 3 -66 9 -72 13 -6 4 -2 39 13 101 33 141 43 206
60 405 36 417 67 556 172 770 85 172 291 374 451 442 53 23 192 61 223 62 24
1 27 -3 33 -46z m4819 22 c43 -13 100 -36 128 -50 186 -93 359 -286 449 -500
7 -16 16 -38 21 -47 10 -19 46 -142 60 -203 18 -79 30 -174 49 -395 17 -204
52 -449 67 -473 3 -5 9 -25 13 -43 10 -42 0 -49 -85 -58 -69 -8 -234 -41 -315
-63 -30 -8 -68 -18 -85 -23 -42 -11 -359 -89 -420 -102 -83 -19 -377 -15 -465
6 -147 35 -269 90 -397 178 -60 41 -163 138 -163 153 0 13 92 85 108 85 5 0
19 -12 33 -26 38 -41 129 -107 189 -138 105 -53 228 -46 298 17 53 49 67 142
37 245 -18 58 -96 180 -149 231 -40 39 -42 44 -23 63 31 32 159 216 197 283
142 247 235 499 275 740 9 55 19 110 21 123 6 30 55 30 157 -3z m-711 -1307
c133 -148 158 -298 50 -298 -47 0 -166 60 -219 111 -24 22 -43 44 -43 49 0 14
153 167 169 169 7 0 27 -14 43 -31z m-3413 -61 c45 -42 81 -83 81 -91 0 -17
-68 -73 -131 -108 -27 -16 -73 -31 -103 -34 -46 -6 -56 -4 -75 15 -11 11 -21
29 -21 39 0 27 35 117 61 154 30 44 92 109 100 106 4 -2 44 -38 88 -81z m510
-376 l24 -19 -34 -68 c-44 -88 -62 -137 -89 -249 -29 -119 -32 -373 -6 -479
l17 -69 -23 -24 c-63 -68 -244 -150 -398 -181 -142 -28 -170 -31 -440 -42
-195 -8 -297 -19 -375 -40 -28 -7 -35 2 -35 45 0 41 -59 263 -115 430 -21 66
-28 93 -54 205 -15 68 -20 129 -11 135 5 3 28 0 52 -6 150 -38 361 -68 474
-69 220 0 511 83 689 199 22 14 45 30 51 36 6 5 27 21 47 35 20 14 69 59 109
101 40 42 78 77 83 78 6 0 21 -8 34 -18z m2383 -64 c141 -141 291 -233 479
-295 239 -79 526 -83 819 -12 19 5 54 11 78 15 l42 7 0 -46 c0 -46 -7 -82 -43
-211 -10 -38 -22 -83 -27 -100 -4 -16 -20 -63 -34 -103 -31 -87 -76 -257 -76
-292 -1 -48 -13 -55 -72 -42 -110 24 -188 32 -363 37 -219 7 -399 28 -470 55
-11 4 -38 13 -60 20 -52 16 -174 74 -204 97 -72 56 -82 70 -75 115 4 24 11 53
15 66 5 13 9 85 9 160 0 207 -36 365 -118 528 -23 46 -28 64 -19 73 20 20 35
12 119 -72z m-272 -94 c40 -83 44 -94 64 -163 90 -319 6 -653 -240 -950 -97
-118 -209 -220 -479 -437 -101 -82 -274 -248 -302 -290 -8 -13 -19 -23 -23
-23 -5 0 -30 23 -57 52 -109 116 -174 177 -327 303 -235 195 -363 320 -456
447 -78 106 -163 280 -190 388 -42 171 -37 391 12 535 28 82 74 181 88 190 10
6 36 -1 95 -25 20 -9 190 -63 250 -79 17 -5 71 -16 120 -25 50 -10 113 -22
141 -27 l51 -10 7 -83 c10 -141 57 -259 127 -322 85 -76 197 -71 276 12 71 74
106 166 121 324 l7 75 105 16 c58 9 143 26 190 37 81 20 336 105 348 117 19
19 42 -1 72 -62z m-854 -138 c6 -15 -22 -165 -39 -204 -16 -38 -68 -91 -90
-91 -44 0 -81 43 -111 130 -21 60 -32 170 -19 178 6 4 66 6 133 4 91 -2 122
-7 126 -17z"/>
<path d="M4850 7049 c-111 -17 -162 -29 -280 -64 -30 -9 -64 -19 -75 -22 -11
-3 -34 -11 -52 -19 -17 -8 -34 -14 -38 -14 -15 0 -246 -118 -310 -158 -259
-165 -518 -431 -671 -688 -99 -166 -195 -397 -233 -559 -7 -27 -16 -66 -21
-85 -37 -146 -38 -588 -1 -780 56 -291 114 -446 253 -678 184 -308 463 -572
786 -746 222 -119 420 -181 707 -221 209 -30 528 -13 730 40 328 85 537 189
793 394 230 185 397 387 530 644 51 98 118 256 133 312 4 17 15 55 23 85 47
161 68 335 68 555 0 249 -25 412 -102 646 -126 382 -375 730 -695 968 -134
101 -168 122 -295 188 -302 155 -604 224 -970 222 -107 -1 -206 -8 -280 -20z
m240 -594 l0 -524 -32 -5 c-18 -3 -46 -7 -63 -8 l-30 -3 -5 455 -5 455 -29 60
c-17 33 -30 65 -30 70 -1 11 60 21 142 23 l52 2 0 -525z m290 515 c12 -8 12
-11 -2 -27 -8 -10 -24 -34 -34 -53 -18 -32 -19 -70 -24 -500 l-5 -465 -35 3
c-19 1 -41 4 -47 7 -10 3 -13 118 -13 525 l0 520 73 0 c39 0 79 -4 87 -10z
m244 -39 c121 -36 213 -68 291 -99 98 -39 238 -111 243 -124 2 -4 9 -8 16 -8
8 0 25 -12 40 -26 20 -21 26 -37 26 -71 0 -67 -28 -109 -148 -223 -61 -58
-207 -200 -326 -317 l-216 -212 -67 25 c-37 14 -71 31 -75 37 -4 7 -8 206 -8
444 0 400 1 434 19 475 39 89 115 126 205 99z m-810 -44 c25 -26 45 -57 49
-76 4 -19 7 -233 7 -477 l0 -443 -46 -21 c-26 -11 -52 -20 -58 -20 -6 0 -36
24 -66 52 -30 28 -118 110 -195 182 -77 72 -164 153 -195 181 -125 113 -232
221 -245 249 -16 31 -20 103 -7 122 4 6 36 29 72 51 148 90 304 161 455 207
50 15 95 29 100 31 6 2 27 4 48 4 31 1 44 -6 81 -42z m1598 -354 c78 -64 89
-80 64 -99 -10 -6 -59 -52 -109 -101 -51 -48 -126 -119 -167 -157 -94 -87
-191 -178 -347 -328 l-123 -118 -44 33 c-25 17 -45 36 -45 40 -1 4 110 117
245 250 414 407 417 410 438 510 4 15 9 27 13 27 3 0 37 -26 75 -57z m-2438
-35 c21 -60 52 -93 361 -379 105 -97 224 -208 265 -247 l75 -72 -35 -30 c-19
-16 -37 -30 -40 -30 -6 0 -26 19 -250 230 -255 240 -273 257 -299 279 -12 11
-65 61 -117 110 -85 82 -108 111 -86 111 4 0 25 18 47 40 22 21 45 39 50 40 6
0 19 -24 29 -52z m-37 -313 c170 -161 396 -374 511 -479 28 -27 52 -53 52 -58
0 -14 -63 -88 -75 -88 -10 0 -27 14 -130 109 -33 31 -85 78 -115 105 -30 28
-84 77 -120 110 -70 65 -111 102 -230 207 -72 64 -140 99 -190 99 -11 0 -20 6
-20 13 0 16 119 159 130 155 5 -2 89 -79 187 -173z m2707 118 c26 -31 45 -61
43 -67 -2 -6 -20 -14 -40 -17 -69 -11 -128 -55 -300 -223 -393 -387 -444 -436
-454 -436 -5 0 -25 19 -43 42 l-34 42 91 85 c50 47 142 133 205 191 159 148
312 294 388 371 36 36 72 67 81 68 9 0 37 -24 63 -56z m140 -202 c59 -55 202
-355 243 -509 38 -146 24 -196 -72 -242 -40 -19 -58 -20 -496 -18 l-454 3 -33
69 -32 68 306 302 c169 165 322 312 340 325 61 44 153 45 198 2z m-3058 -38
c42 -32 256 -223 444 -399 30 -28 73 -67 95 -86 22 -19 55 -47 73 -63 33 -29
39 -52 22 -83 -6 -9 -19 -38 -30 -64 l-19 -48 -454 0 -454 0 -43 23 c-59 31
-94 95 -84 152 15 92 116 344 186 465 75 131 85 139 164 140 44 0 58 -5 100
-37z m1544 -297 c95 -14 159 -35 248 -80 83 -44 102 -66 119 -148 25 -122 5
-202 -72 -281 -46 -47 -178 -147 -194 -147 -12 0 -119 55 -221 112 -26 15 -48
36 -51 49 -48 174 -88 238 -176 279 -70 33 -166 26 -253 -17 -35 -18 -66 -31
-68 -28 -17 17 102 124 201 178 74 41 188 77 275 86 43 5 82 9 87 9 6 1 53 -5
105 -12z m-381 -301 c35 -18 87 -82 96 -118 9 -34 -6 -35 -62 -3 -68 39 -151
66 -203 66 -53 0 -69 10 -45 30 45 38 164 52 214 25z m852 -152 c4 -97 -19
-155 -77 -199 -27 -21 -50 -29 -95 -32 -39 -3 -59 -1 -59 7 0 6 4 11 9 11 20
0 169 157 186 198 22 48 35 54 36 15z m-934 -15 c30 -11 88 -39 131 -62 l77
-43 3 -130 3 -130 -38 -29 c-110 -82 -150 -186 -123 -315 18 -82 69 -153 152
-209 37 -25 67 -49 68 -53 0 -14 -99 3 -178 29 -155 53 -294 171 -378 321 -70
124 -95 227 -94 381 0 118 6 132 85 196 92 76 175 88 292 44z m-1524 -12 c66
-51 64 -51 547 -56 l455 -5 -2 -25 c-2 -14 -5 -35 -8 -47 l-5 -23 -519 0
c-406 0 -520 3 -524 13 -2 6 -3 26 -1 42 10 90 16 125 20 125 3 0 20 -11 37
-24z m2585 -52 c30 -109 20 -336 -19 -429 -4 -11 -15 -36 -23 -57 -64 -161
-249 -335 -413 -387 -38 -13 -47 -12 -95 8 -86 35 -158 113 -186 201 -18 55
-34 219 -27 267 6 40 11 46 43 60 20 8 83 37 140 64 96 45 106 48 145 39 79
-18 181 -12 240 14 94 41 157 146 157 261 0 53 16 35 38 -41z m1226 19 c3 -32
7 -76 8 -98 l3 -40 -527 -3 c-495 -2 -527 -1 -532 15 -3 10 -8 39 -12 66 l-6
47 443 0 c465 0 493 2 558 45 20 13 41 24 48 24 6 1 13 -23 17 -56z m-1897
-159 c35 -19 61 -40 58 -45 -10 -15 -102 -59 -125 -59 -18 0 -20 6 -20 63 0
58 5 77 18 77 3 0 34 -16 69 -36z m-936 -102 c4 -4 10 -33 14 -64 l6 -58 -413
-1 c-227 -1 -422 -3 -434 -4 -76 -8 -164 -39 -164 -57 0 -16 -29 -8 -34 10
-12 41 -18 175 -8 181 14 8 1025 2 1033 -7z m2836 -12 c8 0 10 -24 6 -82 -3
-46 -8 -85 -10 -88 -2 -2 -12 1 -21 8 -9 7 -37 23 -62 35 -44 22 -55 22 -505
27 l-460 5 -3 24 c-2 12 -1 34 2 46 5 20 13 24 54 27 35 2 934 1 999 -2z
m-2077 -243 c1 -86 17 -174 44 -232 30 -67 16 -73 -43 -20 -82 75 -104 205
-46 281 15 19 31 32 36 29 5 -4 9 -30 9 -58z m1916 48 c53 -15 91 -49 119
-103 14 -29 15 -41 4 -85 -38 -166 -133 -403 -216 -541 -51 -85 -141 -108
-225 -58 -42 25 -227 196 -547 508 l-124 121 21 45 c12 24 22 47 22 50 0 3 7
22 15 42 l15 36 433 0 c353 0 443 -3 483 -15z m-2630 -22 c3 -10 16 -40 29
-68 13 -27 20 -55 17 -62 -4 -6 -147 -153 -318 -326 -256 -258 -320 -318 -357
-332 -92 -35 -155 2 -224 132 -85 160 -183 438 -183 520 0 52 40 109 93 133
39 17 77 19 490 19 418 1 448 0 453 -16z m129 -244 c4 -10 10 -19 15 -19 4 0
10 -9 13 -20 4 -15 -74 -97 -365 -382 -204 -200 -374 -363 -379 -363 -12 0
-109 117 -109 132 0 8 14 13 39 13 79 0 104 20 435 350 189 188 324 316 332
313 7 -3 16 -13 19 -24z m1642 -142 c478 -464 494 -477 596 -491 26 -4 47 -11
47 -15 0 -20 -116 -154 -130 -149 -10 3 -675 661 -723 715 l-29 32 27 36 c15
19 31 35 35 35 5 0 84 -73 177 -163z m-1466 -39 c21 -17 39 -35 39 -38 0 -4
-53 -61 -118 -126 -526 -532 -529 -535 -557 -641 -4 -13 -12 -23 -18 -23 -7 0
-43 28 -81 62 l-68 61 369 369 c202 202 374 368 381 368 7 0 31 -14 53 -32z
m1519 -343 l375 -376 -40 -35 c-104 -93 -125 -100 -125 -43 0 71 -36 115 -364
442 l-320 319 40 34 c21 18 44 33 49 34 6 0 179 -169 385 -375z m-1320 227
c36 -15 71 -31 78 -35 16 -11 18 -856 1 -921 -21 -83 -91 -132 -173 -123 -51
6 -184 46 -286 87 -127 50 -330 163 -357 199 -19 25 -16 106 6 142 20 33 648
679 660 679 3 0 36 -12 71 -28z m1092 -289 c203 -202 326 -333 338 -359 42
-85 18 -149 -77 -210 -68 -43 -239 -125 -323 -154 -19 -7 -44 -16 -55 -21 -53
-22 -162 -49 -200 -49 -53 0 -102 31 -132 85 -23 40 -23 41 -23 507 l0 468 26
6 c14 4 42 15 62 25 21 10 44 18 52 19 8 0 158 -143 332 -317z m-844 227 l22
0 0 -536 0 -537 -79 6 c-98 6 -109 12 -82 41 11 11 29 41 40 66 20 43 21 64
21 492 0 245 3 454 6 463 5 11 14 15 28 11 11 -3 31 -6 44 -6z m282 -452 l0
-463 35 -65 c21 -38 31 -68 26 -73 -5 -5 -51 -10 -103 -11 l-93 -1 0 250 c0
138 2 376 5 530 l5 280 35 6 c19 4 47 7 63 8 l27 1 0 -462z"/>
</g>
</svg>
